{
    "asset" : {
        "generator" : "Khronos glTF Blender I/O v1.0.5",
        "version" : "2.0"
    },
    "scene" : 0,
    "scenes" : [
        {
            "name" : "Scene",
            "nodes" : [
                0
            ]
        }
    ],
    "nodes" : [
        {
            "mesh" : 0,
            "name" : "Object_0"
        }
    ],
    "materials" : [
        {
            "name" : "Material_0",
            "pbrMetallicRoughness" : {
                "baseColorTexture" : {
                    "index" : 0,
                    "texCoord" : 0
                },
                "metallicFactor" : 1,
                "roughnessFactor" : 1
            }
        }
    ],
    "meshes" : [
        {
            "name" : "Mesh_0",
            "primitives" : [
                {
                    "attributes" : {
                        "POSITION" : 0,
                        "NORMAL" : 1,
                        "TEXCOORD_0" : 2
                    },
                    "indices" : 3,
                    "material" : 0
                },
                {
                    "attributes" : {
                        "POSITION" : 4,
                        "NORMAL" : 5,
                        "TEXCOORD_0" : 6
                    },
                    "indices" : 3,
                    "material" : 0
                },
                {
                    "attributes" : {
                        "POSITION" : 7,
                        "NORMAL" : 8,
                        "TEXCOORD_0" : 9
                    },
                    "indices" : 3,
                    "material" : 0
                },
                {
                    "attributes" : {
                        "POSITION" : 10,
                        "NORMAL" : 11,
                        "TEXCOORD_0" : 12
                    },
                    "indices" : 3,
                    "material" : 0
                },
                {
                    "attributes" : {
                        "POSITION" : 13,
                        "NORMAL" : 14,
                        "TEXCOORD_0" : 15
                    },
                    "indices" : 16,
                    "material" : 0
                }
            ]
        }
    ],
    "textures" : [
        {
            "source" : 0
        }
    ],
    "images" : [
        {
            "mimeType" : "image/png",
            "name" : "foundry-upstairs",
            "uri" : "foundry-upstairs.png"
        }
    ],
    "accessors" : [
        {
            "bufferView" : 0,
            "componentType" : 5126,
            "count" : 65535,
            "max" : [
                37.384822845458984,
                8.89346694946289,
                125.49159240722656
            ],
            "min" : [
                -13.507975578308105,
                -27.9083309173584,
                -7.886147975921631
            ],
            "type" : "VEC3"
        },
        {
            "bufferView" : 1,
            "componentType" : 5126,
            "count" : 65535,
            "type" : "VEC3"
        },
        {
            "bufferView" : 2,
            "componentType" : 5126,
            "count" : 65535,
            "type" : "VEC2"
        },
        {
            "bufferView" : 3,
            "componentType" : 5123,
            "count" : 65535,
            "type" : "SCALAR"
        },
        {
            "bufferView" : 4,
            "componentType" : 5126,
            "count" : 65535,
            "max" : [
                37.384822845458984,
                9.044793128967285,
                125.49159240722656
            ],
            "min" : [
                -13.525219917297363,
                -5.114969730377197,
                -7.886147975921631
            ],
            "type" : "VEC3"
        },
        {
            "bufferView" : 5,
            "componentType" : 5126,
            "count" : 65535,
            "type" : "VEC3"
        },
        {
            "bufferView" : 6,
            "componentType" : 5126,
            "count" : 65535,
            "type" : "VEC2"
        },
        {
            "bufferView" : 7,
            "componentType" : 5126,
            "count" : 65535,
            "max" : [
                30.996055603027344,
                8.501716613769531,
                86.46312713623047
            ],
            "min" : [
                -11.075692176818848,
                -5.41373872756958,
                -7.850820064544678
            ],
            "type" : "VEC3"
        },
        {
            "bufferView" : 8,
            "componentType" : 5126,
            "count" : 65535,
            "type" : "VEC3"
        },
        {
            "bufferView" : 9,
            "componentType" : 5126,
            "count" : 65535,
            "type" : "VEC2"
        },
        {
            "bufferView" : 10,
            "componentType" : 5126,
            "count" : 65535,
            "max" : [
                35.63003158569336,
                8.641311645507812,
                102.66590118408203
            ],
            "min" : [
                -15.448009490966797,
                -5.944840431213379,
                -7.760096073150635
            ],
            "type" : "VEC3"
        },
        {
            "bufferView" : 11,
            "componentType" : 5126,
            "count" : 65535,
            "type" : "VEC3"
        },
        {
            "bufferView" : 12,
            "componentType" : 5126,
            "count" : 65535,
            "type" : "VEC2"
        },
        {
            "bufferView" : 13,
            "componentType" : 5126,
            "count" : 31614,
            "max" : [
                37.126129150390625,
                8.985230445861816,
                125.39822387695312
            ],
            "min" : [
                -15.044190406799316,
                -27.902307510375977,
                -7.886147975921631
            ],
            "type" : "VEC3"
        },
        {
            "bufferView" : 14,
            "componentType" : 5126,
            "count" : 31614,
            "type" : "VEC3"
        },
        {
            "bufferView" : 15,
            "componentType" : 5126,
            "count" : 31614,
            "type" : "VEC2"
        },
        {
            "bufferView" : 16,
            "componentType" : 5123,
            "count" : 31614,
            "type" : "SCALAR"
        }
    ],
    "bufferViews" : [
        {
            "buffer" : 0,
            "byteLength" : 786420,
            "byteOffset" : 0
        },
        {
            "buffer" : 0,
            "byteLength" : 786420,
            "byteOffset" : 786420
        },
        {
            "buffer" : 0,
            "byteLength" : 524280,
            "byteOffset" : 1572840
        },
        {
            "buffer" : 0,
            "byteLength" : 131070,
            "byteOffset" : 2097120
        },
        {
            "buffer" : 0,
            "byteLength" : 786420,
            "byteOffset" : 2228192
        },
        {
            "buffer" : 0,
            "byteLength" : 786420,
            "byteOffset" : 3014612
        },
        {
            "buffer" : 0,
            "byteLength" : 524280,
            "byteOffset" : 3801032
        },
        {
            "buffer" : 0,
            "byteLength" : 786420,
            "byteOffset" : 4325312
        },
        {
            "buffer" : 0,
            "byteLength" : 786420,
            "byteOffset" : 5111732
        },
        {
            "buffer" : 0,
            "byteLength" : 524280,
            "byteOffset" : 5898152
        },
        {
            "buffer" : 0,
            "byteLength" : 786420,
            "byteOffset" : 6422432
        },
        {
            "buffer" : 0,
            "byteLength" : 786420,
            "byteOffset" : 7208852
        },
        {
            "buffer" : 0,
            "byteLength" : 524280,
            "byteOffset" : 7995272
        },
        {
            "buffer" : 0,
            "byteLength" : 379368,
            "byteOffset" : 8519552
        },
        {
            "buffer" : 0,
            "byteLength" : 379368,
            "byteOffset" : 8898920
        },
        {
            "buffer" : 0,
            "byteLength" : 252912,
            "byteOffset" : 9278288
        },
        {
            "buffer" : 0,
            "byteLength" : 63228,
            "byteOffset" : 9531200
        }
    ],
    "buffers" : [
        {
            "byteLength" : 9594428,
            "uri" : "foundry-upstairs.bin"
        }
    ]
}
